<svg xmlns="http://www.w3.org/2000/svg" viewBox="0 0 600 600">
    <path fill="#fff"
        d="M316.539 8.039 305.384.146c37.139.653 72.617 8.055 105.289 21.036-14.706 12.737-28.012 27.925-39.643 45.437a194.085 194.085 0 0 0-14.587-2.255c-15.085-38.435-38.846-55.575-39.904-56.325zm150.406 42.707c-.605 3.459-1.372 7.117-2.257 10.899-3.969 16.32-11.21 35.138-24.201 53.676 10.217 51.588 15.323 110.454 13.995 162.484-.282 11.055-.844 21.473-1.651 30.957 6.356 24.37 6.831 50.666.161 76.842h.044c-4.66 24.122-14.48 45.19-28.065 63.123-3.098 4.144-6.442 8.082-9.938 11.902-20.589 23.123-46.634 37.561-67.461 46.203-20.868 8.643-36.598 11.497-36.598 11.497-9.323 2.093-18.733 3.502-28.098 4.343-29.479 2.978-87.735-8.563-116.89-29.188 0 0 57.056 20.021 118.735 17.728 3.258-22.837 2.127-39.885-1.975-52.311v-.037c-9.927-28.19-33.848-32.733-50.089-30.92 38.307-17.292 57.093 15.759 60.793 30.92 2.935 12.262 3.377 27.217 3.41 32.565a421.843 421.843 0 0 0 8.848 17.291c20.262-3.982 37.872-10.693 52.839-18.495a776.98 776.98 0 0 1-6.032-64.417c-1.488-26.975 13.704-111.376 11.622-151.786-2.697-38.639-10.413-73.982-31.929-110.092-18.774-26.053-40.16-30.677-50.95-31.157.927.48 1.812.923 2.697 1.403 8.61 4.666 15.561 9.652 20.999 14.961 5.382 5.308 9.202 10.855 11.608 16.606 1.533 3.701 2.462 7.439 2.819 11.259.16 1.203.205 2.45.205 3.658 0 62.966-33.7 104.099-125.977 167.189a1595.603 1595.603 0 0 1-24.762 16.563c-95.096 62.362-65.629 208.122 86.244 232.243 14.631 2.212 29.631 3.34 44.909 3.34 120.752 0 224.77-71.328 272.334-174.144 0-.043-.045-.043-.045-.043h.045v.043h.041C590.103 387.573 600 344.952 600 300c0-103.861-52.798-195.416-133.055-249.254zM308.167 180.66c0 3.857-.128 7.602-.41 11.259a383.438 383.438 0 0 0-6.992-.566c-1.004-.038-2.05-.119-3.054-.156a251.615 251.615 0 0 0-8.04-.243c-6.796-.044-13.594.156-20.307.76 0-.037-.042-.037-.042-.037-89.829 7.601-169.041 70.929-192.434 163.207-15.849 62.562-2.857 125.652 30.634 175.184C41.778 475.108 0 392.44 0 300 0 193.085 56.02 99.275 140.248 46.16c0-.038.045-.081.045-.119C186.538 16.892 241.29.005 299.999.005h.249l-1.618 16.202c-.11 1.047-1.598 16.164-1.803 33.455a323.903 323.903 0 0 0 0 9.247c-.044 1.246 0 2.449.033 3.695.086 3.982.279 7.926.603 11.664-27.742 8.001-57.09 11.777-64.126 12.382-.205.043-.443.043-.68.043H217.53l4.143 14.512c2.537 8.93 13.553 26.216 38.888 34.821 24.364 9.328 40.086 21.11 45.471 34.097a27.771 27.771 0 0 1 2.008 7.845c.084.88.127 1.808.127 2.692zm-83.397 2.735a164.457 164.457 0 0 0-10.93-.361c-48.138 0-95.182 19.417-129.074 53.271L61.2 259.871s-4.099-20.506-4.66-32.371c-1.533-32.365.324-59.545 8.48-86.726C33.857 186.73 16.086 241.9 16.086 300c0 52.915 14.598 103.856 41.458 147.805-5.471-31.848-4.348-64.854 3.787-96.864 20.942-82.707 84.388-145.512 163.439-167.546zM456.725 4.829s-12.062 4.425-28.745 16.93c-15.234 11.497-34.291 29.753-51.619 57.657-8.332-1.969-17.61-3.539-28.151-4.424-13.79-40.328-38.232-57.657-38.232-57.657s-1.619 16.282-1.812 34.177c-.042 1.203-.042 2.412-.042 3.615 0 9.608.443 19.422 1.854 27.18-31.291 10.337-67.999 15.079-75.962 15.765-.398 0-.799.037-1.36.037 14.955 12.549 40.076 15.042 40.076 15.042 36.88 2.574 80.15 10.413 114.117 24.122-.045.043-.074.043-.119.081l-14.471 10.779 13.749 11.659c27.459 23.323 41.413 61.153 41.413 112.461 0 1.607 0 3.215-.089 4.822-1.239 50.385-22.874 93.168-61.471 122.76l.033 17.572v.08c.172 10.774.853 22.676 1.738 34.179.885 11.497 1.975 22.595 2.967 31.76 21.483-13.147 36.233-27.741 44.359-36.87 1.844-2.131 3.377-3.938 4.497-5.389 6.561-29.07 12.863-58.624 17.609-93.32a823.86 823.86 0 0 0 4.307-38.764c.885-9.932 1.447-20.544 1.693-31.561.119-5.31.196-10.737.196-16.289 0-47.406-5.106-100.963-14.958-148.526 13.79-18.376 21.356-37.313 25.413-54.043.443-1.888.853-3.782 1.242-5.627a162.894 162.894 0 0 0 2.34-15.602c1.89-19.421-.572-32.606-.572-32.606z" />
</svg>