<svg xmlns="http://www.w3.org/2000/svg" viewBox="0 0 490 490">
    <g>
        <g>
            <path
                d="M106.1,86.3c-11.4,0-20.8,9.4-20.8,20.8v275.7c0,11.4,9.4,20.8,20.8,20.8h276.7c11.4,0,19.8-8.3,20.8-19.8V107.2    c0-11.4-9.4-20.8-20.8-20.8H106.1V86.3z M362,363.1H126.9V128H362V363.1z" />
            <path
                d="M339.2,41.6h106.1v107.2c0,11.4,9.4,20.8,20.8,20.8s20.8-9.4,20.8-21.8v-127c0-11.4-9.4-20.8-20.8-20.8H339.2    c-11.4,0-20.8,9.4-20.8,20.8S327.7,41.6,339.2,41.6z" />
            <path
                d="M22.9,169.6c11.4,0,19.8-9.4,19.8-19.8V42.7h107.2c11.4,0,20.8-9.4,20.8-20.8S161.3,1,149.8,1H22.9    C11.5,1,2.1,10.4,2.1,21.8v126.9C2.1,160.2,11.4,169.6,22.9,169.6z" />
            <path
                d="M467.1,321.5c-11.4,0-20.8,9.4-20.8,20.8v106.1H339.2c-11.4,0-20.8,9.4-20.8,20.8s9.4,20.8,20.8,20.8h126.9    c11.4,0,20.8-9.4,21.8-20.8V342.3C487.9,330.8,478.6,321.5,467.1,321.5z" />
            <path
                d="M150.8,449.4H43.7V342.3c0-11.4-9.4-20.8-20.8-20.8s-20.8,9.4-20.8,20.8v126.9c0,11.4,9.4,20.8,20.8,20.8h126.9    c11.4,0,20.8-9.4,21.8-19.8C171.7,458.8,162.3,449.4,150.8,449.4z" />
        </g>
    </g>
</svg>